<svg xmlns="http://www.w3.org/2000/svg" viewBox="0 0 100 100" width="100" height="100">
  <rect width="100" height="100" rx="22" fill="#0d0d0d"/>

  <!-- unlit dots base layer -->
  <circle cx="26" cy="22" r="7" fill="#1e1e1e"/>
  <circle cx="26" cy="42" r="7" fill="#1e1e1e"/>
  <circle cx="26" cy="62" r="7" fill="#1e1e1e"/>
  <circle cx="26" cy="82" r="7" fill="#1e1e1e"/>

  <circle cx="50" cy="22" r="7" fill="#1e1e1e"/>
  <circle cx="50" cy="42" r="7" fill="#1e1e1e"/>
  <circle cx="50" cy="62" r="7" fill="#1e1e1e"/>
  <circle cx="50" cy="82" r="7" fill="#1e1e1e"/>

  <circle cx="74" cy="22" r="7" fill="#1e1e1e"/>
  <circle cx="74" cy="42" r="7" fill="#1e1e1e"/>
  <circle cx="74" cy="62" r="7" fill="#1e1e1e"/>
  <circle cx="74" cy="82" r="7" fill="#1e1e1e"/>

  <!-- column 1 (red) — 2 dots lit, bottom -->
  <circle cx="26" cy="62" r="7" fill="#ff3d3d"/>
  <circle cx="26" cy="82" r="7" fill="#ff3d3d"/>

  <!-- column 2 (green) — all 4 dots lit -->
  <circle cx="50" cy="22" r="7" fill="#2ecc5a"/>
  <circle cx="50" cy="42" r="7" fill="#2ecc5a"/>
  <circle cx="50" cy="62" r="7" fill="#2ecc5a"/>
  <circle cx="50" cy="82" r="7" fill="#2ecc5a"/>

  <!-- column 3 (blue) — 3 dots lit, bottom -->
  <circle cx="74" cy="42" r="7" fill="#3d8fff"/>
  <circle cx="74" cy="62" r="7" fill="#3d8fff"/>
  <circle cx="74" cy="82" r="7" fill="#3d8fff"/>
</svg>
